<svg xmlns="http://www.w3.org/2000/svg" viewBox="0 0 1200 800" width="1200" height="800"><defs><linearGradient id="g" x1="0" y1="0" x2="1" y2="1"><stop offset="0" stop-color="#fbe3c6"/><stop offset="1" stop-color="#f1ece3"/></linearGradient></defs><rect width="1200" height="800" fill="url(#g)"/><path d="M820 120 1080 400 820 680h150l260-280-260-280z" fill="#00826e" opacity="0.25"/><circle cx="360" cy="440" r="36.4" fill="#18213b"/><path d="M292.4 596 q0 -78 67.60000000000001 -78 q67.60000000000001 0 67.60000000000001 78z" fill="#18213b"/><circle cx="580" cy="440" r="36.4" fill="#f2a516"/><path d="M512.4 596 q0 -78 67.60000000000001 -78 q67.60000000000001 0 67.60000000000001 78z" fill="#f2a516"/><circle cx="800" cy="440" r="36.4" fill="#00826e"/><path d="M732.4 596 q0 -78 67.60000000000001 -78 q67.60000000000001 0 67.60000000000001 78z" fill="#00826e"/><rect y="700" width="1200" height="100" fill="#18213b" opacity="0.08"/></svg>